<svg class="rich-terminal" viewBox="0 0 994 660.0" xmlns="http://www.w3.org/2000/svg">
    <!-- Generated with Rich https://www.textualize.io -->
    <style>

    @font-face {
        font-family: "Fira Code";
        src: local("FiraCode-Regular"),
                url("https://cdnjs.cloudflare.com/ajax/libs/firacode/6.2.0/woff2/FiraCode-Regular.woff2") format("woff2"),
                url("https://cdnjs.cloudflare.com/ajax/libs/firacode/6.2.0/woff/FiraCode-Regular.woff") format("woff");
        font-style: normal;
        font-weight: 400;
    }
    @font-face {
        font-family: "Fira Code";
        src: local("FiraCode-Bold"),
                url("https://cdnjs.cloudflare.com/ajax/libs/firacode/6.2.0/woff2/FiraCode-Bold.woff2") format("woff2"),
                url("https://cdnjs.cloudflare.com/ajax/libs/firacode/6.2.0/woff/FiraCode-Bold.woff") format("woff");
        font-style: bold;
        font-weight: 700;
    }

    .terminal-3397495696-matrix {
        font-family: Fira Code, monospace;
        font-size: 20px;
        line-height: 24.4px;
        font-variant-east-asian: full-width;
    }

    .terminal-3397495696-title {
        font-size: 18px;
        font-weight: bold;
        font-family: arial;
    }

    .terminal-3397495696-r1 { fill: #e0e0e0 }
.terminal-3397495696-r2 { fill: #656565 }
.terminal-3397495696-r3 { fill: #c5c8c6 }
.terminal-3397495696-r4 { fill: #63696e }
.terminal-3397495696-r5 { fill: #646464 }
.terminal-3397495696-r6 { fill: #121212 }
.terminal-3397495696-r7 { fill: #0178d4 }
.terminal-3397495696-r8 { fill: #e2e3e3 }
.terminal-3397495696-r9 { fill: #fea62b }
.terminal-3397495696-r10 { fill: #383c42 }
.terminal-3397495696-r11 { fill: #e76580 }
.terminal-3397495696-r12 { fill: #b93c5b;font-weight: bold }
.terminal-3397495696-r13 { fill: #780028 }
.terminal-3397495696-r14 { fill: #63676c;font-weight: bold }
    </style>

    <defs>
    <clipPath id="terminal-3397495696-clip-terminal">
      <rect x="0" y="0" width="975.0" height="609.0" />
    </clipPath>
    <clipPath id="terminal-3397495696-line-0">
    <rect x="0" y="1.5" width="976" height="24.65"/>
            </clipPath>
<clipPath id="terminal-3397495696-line-1">
    <rect x="0" y="25.9" width="976" height="24.65"/>
            </clipPath>
<clipPath id="terminal-3397495696-line-2">
    <rect x="0" y="50.3" width="976" height="24.65"/>
            </clipPath>
<clipPath id="terminal-3397495696-line-3">
    <rect x="0" y="74.7" width="976" height="24.65"/>
            </clipPath>
<clipPath id="terminal-3397495696-line-4">
    <rect x="0" y="99.1" width="976" height="24.65"/>
            </clipPath>
<clipPath id="terminal-3397495696-line-5">
    <rect x="0" y="123.5" width="976" height="24.65"/>
            </clipPath>
<clipPath id="terminal-3397495696-line-6">
    <rect x="0" y="147.9" width="976" height="24.65"/>
            </clipPath>
<clipPath id="terminal-3397495696-line-7">
    <rect x="0" y="172.3" width="976" height="24.65"/>
            </clipPath>
<clipPath id="terminal-3397495696-line-8">
    <rect x="0" y="196.7" width="976" height="24.65"/>
            </clipPath>
<clipPath id="terminal-3397495696-line-9">
    <rect x="0" y="221.1" width="976" height="24.65"/>
            </clipPath>
<clipPath id="terminal-3397495696-line-10">
    <rect x="0" y="245.5" width="976" height="24.65"/>
            </clipPath>
<clipPath id="terminal-3397495696-line-11">
    <rect x="0" y="269.9" width="976" height="24.65"/>
            </clipPath>
<clipPath id="terminal-3397495696-line-12">
    <rect x="0" y="294.3" width="976" height="24.65"/>
            </clipPath>
<clipPath id="terminal-3397495696-line-13">
    <rect x="0" y="318.7" width="976" height="24.65"/>
            </clipPath>
<clipPath id="terminal-3397495696-line-14">
    <rect x="0" y="343.1" width="976" height="24.65"/>
            </clipPath>
<clipPath id="terminal-3397495696-line-15">
    <rect x="0" y="367.5" width="976" height="24.65"/>
            </clipPath>
<clipPath id="terminal-3397495696-line-16">
    <rect x="0" y="391.9" width="976" height="24.65"/>
            </clipPath>
<clipPath id="terminal-3397495696-line-17">
    <rect x="0" y="416.3" width="976" height="24.65"/>
            </clipPath>
<clipPath id="terminal-3397495696-line-18">
    <rect x="0" y="440.7" width="976" height="24.65"/>
            </clipPath>
<clipPath id="terminal-3397495696-line-19">
    <rect x="0" y="465.1" width="976" height="24.65"/>
            </clipPath>
<clipPath id="terminal-3397495696-line-20">
    <rect x="0" y="489.5" width="976" height="24.65"/>
            </clipPath>
<clipPath id="terminal-3397495696-line-21">
    <rect x="0" y="513.9" width="976" height="24.65"/>
            </clipPath>
<clipPath id="terminal-3397495696-line-22">
    <rect x="0" y="538.3" width="976" height="24.65"/>
            </clipPath>
<clipPath id="terminal-3397495696-line-23">
    <rect x="0" y="562.7" width="976" height="24.65"/>
            </clipPath>
    </defs>

    <rect fill="#292929" stroke="rgba(255,255,255,0.35)" stroke-width="1" x="1" y="1" width="992" height="658" rx="8"/><text class="terminal-3397495696-title" fill="#c5c8c6" text-anchor="middle" x="496" y="27">FixCanonNameApp</text>
            <g transform="translate(26,22)">
            <circle cx="0" cy="0" r="7" fill="#ff5f57"/>
            <circle cx="22" cy="0" r="7" fill="#febc2e"/>
            <circle cx="44" cy="0" r="7" fill="#28c840"/>
            </g>
        
    <g transform="translate(9, 41)" clip-path="url(#terminal-3397495696-clip-terminal)">
    <rect fill="#1a1a1a" x="0" y="1.5" width="12.2" height="24.65" shape-rendering="crispEdges"/><rect fill="#1a1a1a" x="12.2" y="1.5" width="12.2" height="24.65" shape-rendering="crispEdges"/><rect fill="#1a1a1a" x="24.4" y="1.5" width="61" height="24.65" shape-rendering="crispEdges"/><rect fill="#1a1a1a" x="85.4" y="1.5" width="12.2" height="24.65" shape-rendering="crispEdges"/><rect fill="#1a1a1a" x="97.6" y="1.5" width="280.6" height="24.65" shape-rendering="crispEdges"/><rect fill="#1a1a1a" x="378.2" y="1.5" width="183" height="24.65" shape-rendering="crispEdges"/><rect fill="#1a1a1a" x="561.2" y="1.5" width="292.8" height="24.65" shape-rendering="crispEdges"/><rect fill="#1a1a1a" x="854" y="1.5" width="12.2" height="24.65" shape-rendering="crispEdges"/><rect fill="#1a1a1a" x="866.2" y="1.5" width="0" height="24.65" shape-rendering="crispEdges"/><rect fill="#1a1a1a" x="866.2" y="1.5" width="97.6" height="24.65" shape-rendering="crispEdges"/><rect fill="#1a1a1a" x="963.8" y="1.5" width="12.2" height="24.65" shape-rendering="crispEdges"/><rect fill="#0b3a5f" x="0" y="25.9" width="976" height="24.65" shape-rendering="crispEdges"/><rect fill="#0b3a5f" x="0" y="50.3" width="24.4" height="24.65" shape-rendering="crispEdges"/><rect fill="#0b3a5f" x="24.4" y="50.3" width="451.4" height="24.65" shape-rendering="crispEdges"/><rect fill="#0b3a5f" x="475.8" y="50.3" width="475.8" height="24.65" shape-rendering="crispEdges"/><rect fill="#0b3a5f" x="951.6" y="50.3" width="24.4" height="24.65" shape-rendering="crispEdges"/><rect fill="#0b3a5f" x="0" y="74.7" width="976" height="24.65" shape-rendering="crispEdges"/><rect fill="#161616" x="0" y="99.1" width="976" height="24.65" shape-rendering="crispEdges"/><rect fill="#161616" x="0" y="123.5" width="976" height="24.65" shape-rendering="crispEdges"/><rect fill="#161616" x="0" y="147.9" width="976" height="24.65" shape-rendering="crispEdges"/><rect fill="#161616" x="0" y="172.3" width="976" height="24.65" shape-rendering="crispEdges"/><rect fill="#161616" x="0" y="196.7" width="183" height="24.65" shape-rendering="crispEdges"/><rect fill="#0178d4" x="183" y="196.7" width="12.2" height="24.65" shape-rendering="crispEdges"/><rect fill="#24292f" x="195.2" y="196.7" width="585.6" height="24.65" shape-rendering="crispEdges"/><rect fill="#121212" x="780.8" y="196.7" width="12.2" height="24.65" shape-rendering="crispEdges"/><rect fill="#161616" x="793" y="196.7" width="183" height="24.65" shape-rendering="crispEdges"/><rect fill="#161616" x="0" y="221.1" width="183" height="24.65" shape-rendering="crispEdges"/><rect fill="#0178d4" x="183" y="221.1" width="12.2" height="24.65" shape-rendering="crispEdges"/><rect fill="#24292f" x="195.2" y="221.1" width="122" height="24.65" shape-rendering="crispEdges"/><rect fill="#24292f" x="317.2" y="221.1" width="329.4" height="24.65" shape-rendering="crispEdges"/><rect fill="#24292f" x="646.6" y="221.1" width="134.2" height="24.65" shape-rendering="crispEdges"/><rect fill="#121212" x="780.8" y="221.1" width="12.2" height="24.65" shape-rendering="crispEdges"/><rect fill="#161616" x="793" y="221.1" width="183" height="24.65" shape-rendering="crispEdges"/><rect fill="#161616" x="0" y="245.5" width="183" height="24.65" shape-rendering="crispEdges"/><rect fill="#0178d4" x="183" y="245.5" width="12.2" height="24.65" shape-rendering="crispEdges"/><rect fill="#24292f" x="195.2" y="245.5" width="585.6" height="24.65" shape-rendering="crispEdges"/><rect fill="#121212" x="780.8" y="245.5" width="12.2" height="24.65" shape-rendering="crispEdges"/><rect fill="#161616" x="793" y="245.5" width="183" height="24.65" shape-rendering="crispEdges"/><rect fill="#161616" x="0" y="269.9" width="183" height="24.65" shape-rendering="crispEdges"/><rect fill="#0178d4" x="183" y="269.9" width="12.2" height="24.65" shape-rendering="crispEdges"/><rect fill="#24292f" x="195.2" y="269.9" width="61" height="24.65" shape-rendering="crispEdges"/><rect fill="#24292f" x="256.2" y="269.9" width="292.8" height="24.65" shape-rendering="crispEdges"/><rect fill="#24292f" x="549" y="269.9" width="12.2" height="24.65" shape-rendering="crispEdges"/><rect fill="#24292f" x="561.2" y="269.9" width="85.4" height="24.65" shape-rendering="crispEdges"/><rect fill="#24292f" x="646.6" y="269.9" width="24.4" height="24.65" shape-rendering="crispEdges"/><rect fill="#24292f" x="671" y="269.9" width="36.6" height="24.65" shape-rendering="crispEdges"/><rect fill="#24292f" x="707.6" y="269.9" width="73.2" height="24.65" shape-rendering="crispEdges"/><rect fill="#121212" x="780.8" y="269.9" width="12.2" height="24.65" shape-rendering="crispEdges"/><rect fill="#161616" x="793" y="269.9" width="183" height="24.65" shape-rendering="crispEdges"/><rect fill="#161616" x="0" y="294.3" width="183" height="24.65" shape-rendering="crispEdges"/><rect fill="#0178d4" x="183" y="294.3" width="12.2" height="24.65" shape-rendering="crispEdges"/><rect fill="#24292f" x="195.2" y="294.3" width="585.6" height="24.65" shape-rendering="crispEdges"/><rect fill="#121212" x="780.8" y="294.3" width="12.2" height="24.65" shape-rendering="crispEdges"/><rect fill="#161616" x="793" y="294.3" width="183" height="24.65" shape-rendering="crispEdges"/><rect fill="#161616" x="0" y="318.7" width="183" height="24.65" shape-rendering="crispEdges"/><rect fill="#0178d4" x="183" y="318.7" width="12.2" height="24.65" shape-rendering="crispEdges"/><rect fill="#24292f" x="195.2" y="318.7" width="195.2" height="24.65" shape-rendering="crispEdges"/><rect fill="#b93c5b" x="390.4" y="318.7" width="195.2" height="24.65" shape-rendering="crispEdges"/><rect fill="#24292f" x="585.6" y="318.7" width="195.2" height="24.65" shape-rendering="crispEdges"/><rect fill="#121212" x="780.8" y="318.7" width="12.2" height="24.65" shape-rendering="crispEdges"/><rect fill="#161616" x="793" y="318.7" width="183" height="24.65" shape-rendering="crispEdges"/><rect fill="#161616" x="0" y="343.1" width="183" height="24.65" shape-rendering="crispEdges"/><rect fill="#0178d4" x="183" y="343.1" width="12.2" height="24.65" shape-rendering="crispEdges"/><rect fill="#24292f" x="195.2" y="343.1" width="195.2" height="24.65" shape-rendering="crispEdges"/><rect fill="#b93c5b" x="390.4" y="343.1" width="48.8" height="24.65" shape-rendering="crispEdges"/><rect fill="#f5e5e9" x="439.2" y="343.1" width="12.2" height="24.65" shape-rendering="crispEdges"/><rect fill="#f5e5e9" x="451.4" y="343.1" width="73.2" height="24.65" shape-rendering="crispEdges"/><rect fill="#f5e5e9" x="524.6" y="343.1" width="12.2" height="24.65" shape-rendering="crispEdges"/><rect fill="#b93c5b" x="536.8" y="343.1" width="48.8" height="24.65" shape-rendering="crispEdges"/><rect fill="#24292f" x="585.6" y="343.1" width="195.2" height="24.65" shape-rendering="crispEdges"/><rect fill="#121212" x="780.8" y="343.1" width="12.2" height="24.65" shape-rendering="crispEdges"/><rect fill="#161616" x="793" y="343.1" width="183" height="24.65" shape-rendering="crispEdges"/><rect fill="#161616" x="0" y="367.5" width="183" height="24.65" shape-rendering="crispEdges"/><rect fill="#0178d4" x="183" y="367.5" width="12.2" height="24.65" shape-rendering="crispEdges"/><rect fill="#24292f" x="195.2" y="367.5" width="195.2" height="24.65" shape-rendering="crispEdges"/><rect fill="#b93c5b" x="390.4" y="367.5" width="195.2" height="24.65" shape-rendering="crispEdges"/><rect fill="#24292f" x="585.6" y="367.5" width="195.2" height="24.65" shape-rendering="crispEdges"/><rect fill="#121212" x="780.8" y="367.5" width="12.2" height="24.65" shape-rendering="crispEdges"/><rect fill="#161616" x="793" y="367.5" width="183" height="24.65" shape-rendering="crispEdges"/><rect fill="#161616" x="0" y="391.9" width="183" height="24.65" shape-rendering="crispEdges"/><rect fill="#0178d4" x="183" y="391.9" width="12.2" height="24.65" shape-rendering="crispEdges"/><rect fill="#24292f" x="195.2" y="391.9" width="585.6" height="24.65" shape-rendering="crispEdges"/><rect fill="#121212" x="780.8" y="391.9" width="12.2" height="24.65" shape-rendering="crispEdges"/><rect fill="#161616" x="793" y="391.9" width="183" height="24.65" shape-rendering="crispEdges"/><rect fill="#161616" x="0" y="416.3" width="976" height="24.65" shape-rendering="crispEdges"/><rect fill="#161616" x="0" y="440.7" width="976" height="24.65" shape-rendering="crispEdges"/><rect fill="#161616" x="0" y="465.1" width="976" height="24.65" shape-rendering="crispEdges"/><rect fill="#161616" x="0" y="489.5" width="976" height="24.65" shape-rendering="crispEdges"/><rect fill="#161616" x="0" y="513.9" width="976" height="24.65" shape-rendering="crispEdges"/><rect fill="#161616" x="0" y="538.3" width="976" height="24.65" shape-rendering="crispEdges"/><rect fill="#161616" x="0" y="562.7" width="976" height="24.65" shape-rendering="crispEdges"/><rect fill="#0a2c4e" x="0" y="587.1" width="36.6" height="24.65" shape-rendering="crispEdges"/><rect fill="#0b3a5f" x="36.6" y="587.1" width="73.2" height="24.65" shape-rendering="crispEdges"/><rect fill="#0a2c4e" x="109.8" y="587.1" width="97.6" height="24.65" shape-rendering="crispEdges"/><rect fill="#0b3a5f" x="207.4" y="587.1" width="146.4" height="24.65" shape-rendering="crispEdges"/><rect fill="#0b3a5f" x="353.8" y="587.1" width="622.2" height="24.65" shape-rendering="crispEdges"/>
    <g class="terminal-3397495696-matrix">
    <text class="terminal-3397495696-r2" x="12.2" y="20" textLength="12.2" clip-path="url(#terminal-3397495696-line-0)">⭘</text><text class="terminal-3397495696-r2" x="378.2" y="20" textLength="183" clip-path="url(#terminal-3397495696-line-0)">FixCanonNameApp</text><text class="terminal-3397495696-r3" x="976" y="20" textLength="12.2" clip-path="url(#terminal-3397495696-line-0)">
</text><text class="terminal-3397495696-r3" x="976" y="44.4" textLength="12.2" clip-path="url(#terminal-3397495696-line-1)">
</text><text class="terminal-3397495696-r4" x="24.4" y="68.8" textLength="451.4" clip-path="url(#terminal-3397495696-line-2)">Canon&#160;LBP622C/623C&#160;Printer&#160;(e0:2d:90)</text><text class="terminal-3397495696-r3" x="976" y="68.8" textLength="12.2" clip-path="url(#terminal-3397495696-line-2)">
</text><text class="terminal-3397495696-r3" x="976" y="93.2" textLength="12.2" clip-path="url(#terminal-3397495696-line-3)">
</text><text class="terminal-3397495696-r3" x="976" y="117.6" textLength="12.2" clip-path="url(#terminal-3397495696-line-4)">
</text><text class="terminal-3397495696-r3" x="976" y="142" textLength="12.2" clip-path="url(#terminal-3397495696-line-5)">
</text><text class="terminal-3397495696-r3" x="976" y="166.4" textLength="12.2" clip-path="url(#terminal-3397495696-line-6)">
</text><text class="terminal-3397495696-r3" x="976" y="190.8" textLength="12.2" clip-path="url(#terminal-3397495696-line-7)">
</text><text class="terminal-3397495696-r6" x="183" y="215.2" textLength="12.2" clip-path="url(#terminal-3397495696-line-8)">▊</text><text class="terminal-3397495696-r7" x="195.2" y="215.2" textLength="585.6" clip-path="url(#terminal-3397495696-line-8)">▔▔▔▔▔▔▔▔▔▔▔▔▔▔▔▔▔▔▔▔▔▔▔▔▔▔▔▔▔▔▔▔▔▔▔▔▔▔▔▔▔▔▔▔▔▔▔▔</text><text class="terminal-3397495696-r7" x="780.8" y="215.2" textLength="12.2" clip-path="url(#terminal-3397495696-line-8)">▎</text><text class="terminal-3397495696-r3" x="976" y="215.2" textLength="12.2" clip-path="url(#terminal-3397495696-line-8)">
</text><text class="terminal-3397495696-r6" x="183" y="239.6" textLength="12.2" clip-path="url(#terminal-3397495696-line-9)">▊</text><text class="terminal-3397495696-r8" x="317.2" y="239.6" textLength="329.4" clip-path="url(#terminal-3397495696-line-9)">Setting&#160;new&#160;printer&#160;name...</text><text class="terminal-3397495696-r7" x="780.8" y="239.6" textLength="12.2" clip-path="url(#terminal-3397495696-line-9)">▎</text><text class="terminal-3397495696-r3" x="976" y="239.6" textLength="12.2" clip-path="url(#terminal-3397495696-line-9)">
</text><text class="terminal-3397495696-r6" x="183" y="264" textLength="12.2" clip-path="url(#terminal-3397495696-line-10)">▊</text><text class="terminal-3397495696-r7" x="780.8" y="264" textLength="12.2" clip-path="url(#terminal-3397495696-line-10)">▎</text><text class="terminal-3397495696-r3" x="976" y="264" textLength="12.2" clip-path="url(#terminal-3397495696-line-10)">
</text><text class="terminal-3397495696-r6" x="183" y="288.4" textLength="12.2" clip-path="url(#terminal-3397495696-line-11)">▊</text><text class="terminal-3397495696-r9" x="256.2" y="288.4" textLength="292.8" clip-path="url(#terminal-3397495696-line-11)">━━━━━━━━━━━━━━━━━━━━━━━━</text><text class="terminal-3397495696-r10" x="549" y="288.4" textLength="12.2" clip-path="url(#terminal-3397495696-line-11)">╺</text><text class="terminal-3397495696-r10" x="561.2" y="288.4" textLength="85.4" clip-path="url(#terminal-3397495696-line-11)">━━━━━━━</text><text class="terminal-3397495696-r8" x="671" y="288.4" textLength="36.6" clip-path="url(#terminal-3397495696-line-11)">75%</text><text class="terminal-3397495696-r7" x="780.8" y="288.4" textLength="12.2" clip-path="url(#terminal-3397495696-line-11)">▎</text><text class="terminal-3397495696-r3" x="976" y="288.4" textLength="12.2" clip-path="url(#terminal-3397495696-line-11)">
</text><text class="terminal-3397495696-r6" x="183" y="312.8" textLength="12.2" clip-path="url(#terminal-3397495696-line-12)">▊</text><text class="terminal-3397495696-r7" x="780.8" y="312.8" textLength="12.2" clip-path="url(#terminal-3397495696-line-12)">▎</text><text class="terminal-3397495696-r3" x="976" y="312.8" textLength="12.2" clip-path="url(#terminal-3397495696-line-12)">
</text><text class="terminal-3397495696-r6" x="183" y="337.2" textLength="12.2" clip-path="url(#terminal-3397495696-line-13)">▊</text><text class="terminal-3397495696-r11" x="390.4" y="337.2" textLength="195.2" clip-path="url(#terminal-3397495696-line-13)">▔▔▔▔▔▔▔▔▔▔▔▔▔▔▔▔</text><text class="terminal-3397495696-r7" x="780.8" y="337.2" textLength="12.2" clip-path="url(#terminal-3397495696-line-13)">▎</text><text class="terminal-3397495696-r3" x="976" y="337.2" textLength="12.2" clip-path="url(#terminal-3397495696-line-13)">
</text><text class="terminal-3397495696-r6" x="183" y="361.6" textLength="12.2" clip-path="url(#terminal-3397495696-line-14)">▊</text><text class="terminal-3397495696-r12" x="451.4" y="361.6" textLength="73.2" clip-path="url(#terminal-3397495696-line-14)">Cancel</text><text class="terminal-3397495696-r7" x="780.8" y="361.6" textLength="12.2" clip-path="url(#terminal-3397495696-line-14)">▎</text><text class="terminal-3397495696-r3" x="976" y="361.6" textLength="12.2" clip-path="url(#terminal-3397495696-line-14)">
</text><text class="terminal-3397495696-r6" x="183" y="386" textLength="12.2" clip-path="url(#terminal-3397495696-line-15)">▊</text><text class="terminal-3397495696-r13" x="390.4" y="386" textLength="195.2" clip-path="url(#terminal-3397495696-line-15)">▁▁▁▁▁▁▁▁▁▁▁▁▁▁▁▁</text><text class="terminal-3397495696-r7" x="780.8" y="386" textLength="12.2" clip-path="url(#terminal-3397495696-line-15)">▎</text><text class="terminal-3397495696-r3" x="976" y="386" textLength="12.2" clip-path="url(#terminal-3397495696-line-15)">
</text><text class="terminal-3397495696-r6" x="183" y="410.4" textLength="12.2" clip-path="url(#terminal-3397495696-line-16)">▊</text><text class="terminal-3397495696-r7" x="195.2" y="410.4" textLength="585.6" clip-path="url(#terminal-3397495696-line-16)">▁▁▁▁▁▁▁▁▁▁▁▁▁▁▁▁▁▁▁▁▁▁▁▁▁▁▁▁▁▁▁▁▁▁▁▁▁▁▁▁▁▁▁▁▁▁▁▁</text><text class="terminal-3397495696-r7" x="780.8" y="410.4" textLength="12.2" clip-path="url(#terminal-3397495696-line-16)">▎</text><text class="terminal-3397495696-r3" x="976" y="410.4" textLength="12.2" clip-path="url(#terminal-3397495696-line-16)">
</text><text class="terminal-3397495696-r3" x="976" y="434.8" textLength="12.2" clip-path="url(#terminal-3397495696-line-17)">
</text><text class="terminal-3397495696-r3" x="976" y="459.2" textLength="12.2" clip-path="url(#terminal-3397495696-line-18)">
</text><text class="terminal-3397495696-r3" x="976" y="483.6" textLength="12.2" clip-path="url(#terminal-3397495696-line-19)">
</text><text class="terminal-3397495696-r3" x="976" y="508" textLength="12.2" clip-path="url(#terminal-3397495696-line-20)">
</text><text class="terminal-3397495696-r3" x="976" y="532.4" textLength="12.2" clip-path="url(#terminal-3397495696-line-21)">
</text><text class="terminal-3397495696-r3" x="976" y="556.8" textLength="12.2" clip-path="url(#terminal-3397495696-line-22)">
</text><text class="terminal-3397495696-r3" x="976" y="581.2" textLength="12.2" clip-path="url(#terminal-3397495696-line-23)">
</text><text class="terminal-3397495696-r14" x="0" y="605.6" textLength="36.6" clip-path="url(#terminal-3397495696-line-24)">&#160;Q&#160;</text><text class="terminal-3397495696-r4" x="36.6" y="605.6" textLength="73.2" clip-path="url(#terminal-3397495696-line-24)">&#160;Quit&#160;</text><text class="terminal-3397495696-r14" x="109.8" y="605.6" textLength="97.6" clip-path="url(#terminal-3397495696-line-24)">&#160;CTRL+S&#160;</text><text class="terminal-3397495696-r4" x="207.4" y="605.6" textLength="146.4" clip-path="url(#terminal-3397495696-line-24)">&#160;Screenshot&#160;</text>
    </g>
    </g>
</svg>
